<mxfile host="app.diagrams.net" agent="Mozilla/5.0 (Windows NT 10.0; Win64; x64) AppleWebKit/537.36 (KHTML, like Gecko) Chrome/135.0.0.0 Safari/537.36" version="26.2.10">
  <diagram id="W8gf2pntZX4h6oX37k1E" name="PÃ¡gina-1">
    <mxGraphModel dx="1680" dy="914" grid="1" gridSize="10" guides="1" tooltips="1" connect="1" arrows="1" fold="1" page="1" pageScale="1" pageWidth="827" pageHeight="1169" math="0" shadow="0">
      <root>
        <mxCell id="0" />
        <mxCell id="1" parent="0" />
        <mxCell id="KtbFvMZ7oUjdtlLk4iKf-1" value="" style="strokeWidth=1;shadow=0;dashed=0;align=center;html=1;shape=mxgraph.mockup.containers.browserWindow;rSize=0;strokeColor=#666666;mainText=,;recursiveResize=0;rounded=0;labelBackgroundColor=none;fontFamily=Verdana;fontSize=12" parent="1" vertex="1">
          <mxGeometry x="50" y="40" width="1120" height="1030" as="geometry" />
        </mxCell>
        <mxCell id="KtbFvMZ7oUjdtlLk4iKf-2" value="Odoo" style="strokeWidth=1;shadow=0;dashed=0;align=center;html=1;shape=mxgraph.mockup.containers.anchor;fontSize=17;fontColor=#666666;align=left;" parent="KtbFvMZ7oUjdtlLk4iKf-1" vertex="1">
          <mxGeometry x="60" y="12" width="110" height="26" as="geometry" />
        </mxCell>
        <mxCell id="KtbFvMZ7oUjdtlLk4iKf-3" value="localhost:8069/ruta/nueva" style="strokeWidth=1;shadow=0;dashed=0;align=center;html=1;shape=mxgraph.mockup.containers.anchor;rSize=0;fontSize=17;fontColor=#666666;align=left;" parent="KtbFvMZ7oUjdtlLk4iKf-1" vertex="1">
          <mxGeometry x="130" y="60" width="250" height="26" as="geometry" />
        </mxCell>
        <mxCell id="KtbFvMZ7oUjdtlLk4iKf-4" value="&lt;font style=&quot;font-size: 20px;&quot;&gt;Ruta / &lt;font style=&quot;color: light-dark(rgb(191, 191, 191), rgb(237, 237, 237));&quot;&gt;Nueva&lt;/font&gt;&lt;/font&gt;" style="text;html=1;points=[];align=left;verticalAlign=top;spacingTop=-4;fontSize=30;fontFamily=Verdana" parent="KtbFvMZ7oUjdtlLk4iKf-1" vertex="1">
          <mxGeometry x="15" y="120" width="340" height="50" as="geometry" />
        </mxCell>
        <mxCell id="KtbFvMZ7oUjdtlLk4iKf-5" value="" style="verticalLabelPosition=bottom;shadow=0;dashed=0;align=center;html=1;verticalAlign=top;strokeWidth=1;shape=mxgraph.mockup.markup.line;strokeColor=#999999;rounded=0;labelBackgroundColor=none;fillColor=#ffffff;fontFamily=Verdana;fontSize=12;fontColor=#000000;" parent="KtbFvMZ7oUjdtlLk4iKf-1" vertex="1">
          <mxGeometry y="193" width="1120" height="20" as="geometry" />
        </mxCell>
        <mxCell id="KtbFvMZ7oUjdtlLk4iKf-6" value="Guardar" style="strokeWidth=1;shadow=0;dashed=0;align=center;html=1;shape=mxgraph.mockup.buttons.button;strokeColor=#9673a6;mainText=;buttonStyle=round;fontSize=17;fontStyle=0;fillColor=#e1d5e7;whiteSpace=wrap;rounded=0;labelBackgroundColor=none;" parent="KtbFvMZ7oUjdtlLk4iKf-1" vertex="1">
          <mxGeometry x="15" y="170" width="85" height="20" as="geometry" />
        </mxCell>
        <mxCell id="KtbFvMZ7oUjdtlLk4iKf-55" value="Descartar" style="strokeWidth=1;shadow=0;dashed=0;align=center;html=1;shape=mxgraph.mockup.buttons.button;strokeColor=#9673a6;mainText=;buttonStyle=round;fontSize=17;fontStyle=0;fillColor=none;whiteSpace=wrap;rounded=0;labelBackgroundColor=none;" parent="KtbFvMZ7oUjdtlLk4iKf-1" vertex="1">
          <mxGeometry x="105" y="170" width="95" height="20" as="geometry" />
        </mxCell>
        <mxCell id="KtbFvMZ7oUjdtlLk4iKf-56" value="" style="rounded=0;whiteSpace=wrap;html=1;fillColor=none;" parent="KtbFvMZ7oUjdtlLk4iKf-1" vertex="1">
          <mxGeometry x="210" y="220" width="660" height="740" as="geometry" />
        </mxCell>
        <mxCell id="KtbFvMZ7oUjdtlLk4iKf-57" value="&lt;font style=&quot;font-size: 16px;&quot;&gt;Ruta&lt;/font&gt;" style="text;strokeColor=none;fillColor=none;align=left;verticalAlign=top;spacingLeft=4;spacingRight=4;overflow=hidden;rotatable=0;points=[[0,0.5],[1,0.5]];portConstraint=eastwest;whiteSpace=wrap;html=1;" parent="KtbFvMZ7oUjdtlLk4iKf-1" vertex="1">
          <mxGeometry x="280" y="240" width="90" height="30" as="geometry" />
        </mxCell>
        <mxCell id="KtbFvMZ7oUjdtlLk4iKf-58" value="Identificador de la ruta" style="strokeWidth=1;shadow=0;dashed=0;align=center;html=1;shape=mxgraph.mockup.text.textBox;fontColor=#666666;align=left;fontSize=17;spacingLeft=4;spacingTop=-3;whiteSpace=wrap;strokeColor=#666666;mainText=" parent="KtbFvMZ7oUjdtlLk4iKf-1" vertex="1">
          <mxGeometry x="280" y="280" width="310" height="30" as="geometry" />
        </mxCell>
        <mxCell id="KtbFvMZ7oUjdtlLk4iKf-60" value="&lt;font style=&quot;font-size: 16px;&quot;&gt;Nombre&lt;/font&gt;" style="text;strokeColor=none;fillColor=none;align=left;verticalAlign=top;spacingLeft=4;spacingRight=4;overflow=hidden;rotatable=0;points=[[0,0.5],[1,0.5]];portConstraint=eastwest;whiteSpace=wrap;html=1;" parent="KtbFvMZ7oUjdtlLk4iKf-1" vertex="1">
          <mxGeometry x="280" y="369" width="90" height="26" as="geometry" />
        </mxCell>
        <mxCell id="Pt9-DW9MEc0Vwg_8VI7V-1" value="Nombre de la ruta" style="strokeWidth=1;shadow=0;dashed=0;align=center;html=1;shape=mxgraph.mockup.text.textBox;fontColor=#666666;align=left;fontSize=17;spacingLeft=4;spacingTop=-3;whiteSpace=wrap;strokeColor=#666666;mainText=" vertex="1" parent="KtbFvMZ7oUjdtlLk4iKf-1">
          <mxGeometry x="370" y="369" width="210" height="40" as="geometry" />
        </mxCell>
        <mxCell id="Pt9-DW9MEc0Vwg_8VI7V-2" value="Abrir mapa" style="strokeWidth=1;shadow=0;dashed=0;align=center;html=1;shape=mxgraph.mockup.buttons.button;strokeColor=#9673a6;mainText=;buttonStyle=round;fontSize=17;fontStyle=0;fillColor=#e1d5e7;whiteSpace=wrap;rounded=0;labelBackgroundColor=none;" vertex="1" parent="KtbFvMZ7oUjdtlLk4iKf-1">
          <mxGeometry x="364" y="567.25" width="210" height="45.5" as="geometry" />
        </mxCell>
        <mxCell id="Pt9-DW9MEc0Vwg_8VI7V-4" value="&lt;font style=&quot;font-size: 16px; color: light-dark(rgb(191, 191, 191), rgb(237, 237, 237));&quot;&gt;Texto informativo, p.e. &quot;google.com/dir/...&quot;&lt;/font&gt;&lt;div&gt;&lt;font style=&quot;font-size: 16px; color: light-dark(rgb(191, 191, 191), rgb(237, 237, 237));&quot;&gt;o&amp;nbsp;&lt;/font&gt;&lt;font style=&quot;font-size: 16px; color: light-dark(rgb(255, 0, 0), rgb(237, 237, 237));&quot;&gt;mensaje de error&lt;/font&gt;&lt;/div&gt;" style="text;strokeColor=none;fillColor=none;align=left;verticalAlign=top;spacingLeft=4;spacingRight=4;overflow=hidden;rotatable=0;points=[[0,0.5],[1,0.5]];portConstraint=eastwest;whiteSpace=wrap;html=1;" vertex="1" parent="KtbFvMZ7oUjdtlLk4iKf-1">
          <mxGeometry x="364" y="616" width="490" height="64" as="geometry" />
        </mxCell>
        <mxCell id="Pt9-DW9MEc0Vwg_8VI7V-5" value="&lt;font style=&quot;color: light-dark(rgb(176, 176, 176), rgb(237, 237, 237));&quot;&gt;Crear Ruta&lt;/font&gt;" style="strokeWidth=1;shadow=0;dashed=0;align=center;html=1;shape=mxgraph.mockup.buttons.button;strokeColor=#9673a6;mainText=;buttonStyle=round;fontSize=17;fontStyle=0;fillColor=#e1d5e7;whiteSpace=wrap;rounded=0;labelBackgroundColor=none;opacity=40;" vertex="1" parent="KtbFvMZ7oUjdtlLk4iKf-1">
          <mxGeometry x="364" y="810" width="210" height="45.5" as="geometry" />
        </mxCell>
      </root>
    </mxGraphModel>
  </diagram>
</mxfile>
